<svg width="16" height="16" viewBox="0 0 16 16" fill="none" xmlns="http://www.w3.org/2000/svg">
<g clip-path="url(#clip0_93_1015)">
<path d="M9.99996 12H6.66663" stroke="#0A0A0A" stroke-width="1.33333" stroke-linecap="round" stroke-linejoin="round"/>
<path d="M12 9.3335H6.66663" stroke="#0A0A0A" stroke-width="1.33333" stroke-linecap="round" stroke-linejoin="round"/>
<path d="M2.66671 14.6668H13.3334C13.687 14.6668 14.0261 14.5264 14.2762 14.2763C14.5262 14.0263 14.6667 13.6871 14.6667 13.3335V2.66683C14.6667 2.31321 14.5262 1.97407 14.2762 1.72402C14.0261 1.47397 13.687 1.3335 13.3334 1.3335H5.33337C4.97975 1.3335 4.64061 1.47397 4.39056 1.72402C4.14052 1.97407 4.00004 2.31321 4.00004 2.66683V13.3335C4.00004 13.6871 3.85956 14.0263 3.60952 14.2763C3.35947 14.5264 3.02033 14.6668 2.66671 14.6668ZM2.66671 14.6668C2.31309 14.6668 1.97395 14.5264 1.7239 14.2763C1.47385 14.0263 1.33337 13.6871 1.33337 13.3335V7.3335C1.33337 6.97987 1.47385 6.64074 1.7239 6.39069C1.97395 6.14064 2.31309 6.00016 2.66671 6.00016H4.00004" stroke="#0A0A0A" stroke-width="1.33333" stroke-linecap="round" stroke-linejoin="round"/>
<path d="M11.3333 4H7.33329C6.9651 4 6.66663 4.29848 6.66663 4.66667V6C6.66663 6.36819 6.9651 6.66667 7.33329 6.66667H11.3333C11.7015 6.66667 12 6.36819 12 6V4.66667C12 4.29848 11.7015 4 11.3333 4Z" stroke="#0A0A0A" stroke-width="1.33333" stroke-linecap="round" stroke-linejoin="round"/>
</g>
<defs>
<clipPath id="clip0_93_1015">
<rect width="16" height="16" fill="white"/>
</clipPath>
</defs>
</svg>
